<svg width="239" height="179" viewBox="0 0 239 179" fill="none" xmlns="http://www.w3.org/2000/svg">
<path d="M74.8125 14.1187C74.8125 2.00736 89.8332 -2.58945 97.0983 6.13867C106.865 17.8593 114.181 24.6756 120.656 28.7487C123.878 30.8161 127.391 32.3881 131.08 33.412C123.924 44.0655 120.244 56.6746 120.548 69.5049C120.897 85.548 132.327 95.9386 142.618 100.095L189.616 119.089C199.907 123.245 215.335 123.719 226.748 112.422C233.097 106.139 238.021 98.5639 241.187 90.2113C246.623 101.467 249.423 113.813 249.375 126.312C249.375 149.662 239.924 170.161 224.438 185.747V209.438C224.438 216.051 221.81 222.394 217.133 227.071C212.457 231.748 206.114 234.375 199.5 234.375H182.875C178.466 234.375 174.237 232.623 171.119 229.506C168.002 226.388 166.25 222.159 166.25 217.75H133C133 222.159 131.248 226.388 128.131 229.506C125.013 232.623 120.784 234.375 116.375 234.375H99.75C93.1362 234.375 86.7932 231.748 82.1165 227.071C77.4398 222.394 74.8125 216.051 74.8125 209.438V202.264C58.6114 192.962 45.9099 179.213 38.9939 160.568C38.3954 158.964 37.2733 158.174 36.4004 157.991C30.8096 156.815 25.7934 153.752 22.1928 149.316C18.5923 144.88 16.6265 139.341 16.625 133.627V118.998C16.625 107.219 24.8793 97.0525 36.4088 94.6336C37.2816 94.4507 38.4037 93.661 38.9939 92.0567C45.9099 73.4201 58.6114 59.6629 74.8125 50.3612V14.1187ZM87.2812 109.688C90.5882 109.688 93.7596 108.374 96.098 106.035C98.4363 103.697 99.75 100.526 99.75 97.2188C99.75 93.9118 98.4363 90.7403 96.098 88.402C93.7596 86.0637 90.5882 84.75 87.2812 84.75C83.9743 84.75 80.8029 86.0637 78.4645 88.402C76.1262 90.7403 74.8125 93.9118 74.8125 97.2188C74.8125 100.526 76.1262 103.697 78.4645 106.035C80.8029 108.374 83.9743 109.688 87.2812 109.688ZM133 68.125C133 59.9127 135.027 51.8274 138.903 44.5871C142.778 37.3467 148.382 31.1753 155.215 26.621C162.049 22.0666 169.902 19.2701 178.076 18.4799C186.25 17.6897 194.493 18.9302 202.072 22.0912C209.652 25.2521 216.334 30.2359 221.524 36.5998C226.715 42.9637 230.254 50.5108 231.827 58.5711C233.4 66.6314 232.958 74.9553 230.541 82.8038C228.123 90.6523 223.805 97.7825 217.97 103.561C211.104 110.369 201.412 110.411 194.288 107.526L147.289 88.5405C140.157 85.6561 133.224 78.898 133.008 69.2306L133 68.125Z" fill="#4DA8ED" fill-opacity="0.5"/>
</svg>
