<svg width="158" height="179" viewBox="0 0 158 179" fill="none" xmlns="http://www.w3.org/2000/svg">
<path d="M149.875 131.25C139.035 131.25 128.638 135.557 120.972 143.222C113.307 150.888 109 161.284 109 172.125C109 149.553 92.7412 131.25 72.667 131.25M149.875 94.9167C139.035 94.9167 128.638 99.2232 120.972 106.889C113.307 114.554 109 124.951 109 135.792C109 113.22 92.7412 94.9167 72.667 94.9167M149.875 58.5834C139.035 58.5834 128.638 62.8898 120.972 70.5554C113.307 78.2209 109 88.6176 109 99.4584C109 76.8863 92.7412 58.5834 72.667 58.5834M109 31.3334V85.8334" stroke="#9671FF" stroke-opacity="0.2" stroke-width="18.1667" stroke-linecap="round" stroke-linejoin="round"/>
</svg>
