<svg width="40" height="40" viewBox="0 0 40 40" fill="none" xmlns="http://www.w3.org/2000/svg">
<rect width="40" height="40" rx="6.66667" fill="#F2EDFF"/>
<path d="M26.1087 14.7333L20.8837 11.9167C20.3337 11.6167 19.6671 11.6167 19.1171 11.9167L13.8921 14.7333C13.5087 14.9417 13.2754 15.3417 13.2754 15.8C13.2754 16.25 13.5087 16.6583 13.8921 16.8667L19.1171 19.6833C19.3921 19.8333 19.7004 19.9083 20.0004 19.9083C20.3004 19.9083 20.6087 19.8333 20.8837 19.6833L26.1087 16.8667C26.4921 16.6583 26.7254 16.2583 26.7254 15.8C26.7254 15.3417 26.4921 14.9417 26.1087 14.7333Z" fill="#7146E8"/>
<path d="M18.2577 20.6583L13.391 18.2249C13.016 18.0416 12.5827 18.0583 12.2327 18.2749C11.8743 18.4999 11.666 18.8749 11.666 19.2916V23.8833C11.666 24.6749 12.1077 25.3916 12.816 25.7499L17.6743 28.1833C17.841 28.2666 18.0243 28.3083 18.2077 28.3083C18.4243 28.3083 18.641 28.2499 18.8327 28.1333C19.191 27.9166 19.3993 27.5333 19.3993 27.1166V22.5249C19.4077 21.7249 18.966 21.0083 18.2577 20.6583Z" fill="#7146E8"/>
<path d="M27.7663 18.2751C27.4079 18.0585 26.9746 18.0335 26.6079 18.2251L21.7496 20.6585C21.0413 21.0168 20.5996 21.7251 20.5996 22.5251V27.1168C20.5996 27.5335 20.8079 27.9168 21.1663 28.1335C21.3579 28.2501 21.5746 28.3084 21.7913 28.3084C21.9746 28.3084 22.1579 28.2668 22.3246 28.1835L27.1829 25.7501C27.8913 25.3918 28.3329 24.6835 28.3329 23.8835V19.2918C28.3329 18.8751 28.1246 18.5001 27.7663 18.2751Z" fill="#7146E8"/>
</svg>
