<svg width="40" height="40" viewBox="0 0 40 40" fill="none" xmlns="http://www.w3.org/2000/svg">
<rect width="40" height="40" rx="6.66667" fill="#EAFAF3"/>
<path fill-rule="evenodd" clip-rule="evenodd" d="M12.8864 12.8871C11.666 14.1075 11.666 16.0717 11.666 20.0001C11.666 23.9285 11.666 25.8926 12.8864 27.113C14.1068 28.3334 16.071 28.3334 19.9993 28.3334C23.9277 28.3334 25.8919 28.3334 27.1123 27.113C28.3327 25.8926 28.3327 23.9285 28.3327 20.0001C28.3327 16.0717 28.3327 14.1075 27.1123 12.8871C25.8919 11.6667 23.9277 11.6667 19.9993 11.6667C16.071 11.6667 14.1068 11.6667 12.8864 12.8871ZM21.4577 18.3334C21.4577 18.6786 21.7375 18.9584 22.0827 18.9584H22.6571L20.98 20.6356C20.8986 20.7169 20.7667 20.7169 20.6854 20.6356L19.3639 19.3141C18.7944 18.7445 17.871 18.7445 17.3015 19.3141L15.3907 21.2248C15.1467 21.4689 15.1467 21.8646 15.3907 22.1087C15.6348 22.3528 16.0305 22.3528 16.2746 22.1087L18.1854 20.1979C18.2667 20.1166 18.3986 20.1166 18.48 20.1979L19.8015 21.5194C20.371 22.0889 21.2944 22.0889 21.8639 21.5194L23.541 19.8423V20.4167C23.541 20.7619 23.8208 21.0417 24.166 21.0417C24.5112 21.0417 24.791 20.7619 24.791 20.4167V18.3334C24.791 17.9882 24.5112 17.7084 24.166 17.7084H22.0827C21.7375 17.7084 21.4577 17.9882 21.4577 18.3334Z" fill="#27B97D"/>
</svg>
