<svg width="48" height="48" viewBox="0 0 48 48" fill="none" xmlns="http://www.w3.org/2000/svg">
<rect width="48" height="48" rx="8" fill="#F2EDFF"/>
<path d="M24 20.25C24.1989 20.25 24.3897 20.329 24.5303 20.4697C24.671 20.6103 24.75 20.8011 24.75 21V21.354C24.9633 21.414 25.1647 21.498 25.354 21.606C25.4983 21.5099 25.6714 21.4667 25.8439 21.4838C26.0163 21.5009 26.1776 21.5773 26.3002 21.6998C26.4227 21.8224 26.4991 21.9837 26.5162 22.1561C26.5333 22.3286 26.4901 22.5017 26.394 22.646C26.5013 22.8347 26.5853 23.036 26.646 23.25H27C27.1989 23.25 27.3897 23.329 27.5303 23.4697C27.671 23.6103 27.75 23.8011 27.75 24C27.75 24.1989 27.671 24.3897 27.5303 24.5303C27.3897 24.671 27.1989 24.75 27 24.75H26.646C26.586 24.9633 26.502 25.1647 26.394 25.354C26.4901 25.4983 26.5333 25.6714 26.5162 25.8439C26.4991 26.0163 26.4227 26.1776 26.3002 26.3002C26.1776 26.4227 26.0163 26.4991 25.8439 26.5162C25.6714 26.5333 25.4983 26.4901 25.354 26.394C25.1636 26.5022 24.9608 26.5868 24.75 26.646V27C24.75 27.1989 24.671 27.3897 24.5303 27.5303C24.3897 27.671 24.1989 27.75 24 27.75C23.8011 27.75 23.6103 27.671 23.4697 27.5303C23.329 27.3897 23.25 27.1989 23.25 27V26.646C23.0392 26.5868 22.8364 26.5022 22.646 26.394C22.5017 26.4901 22.3286 26.5333 22.1561 26.5162C21.9837 26.4991 21.8224 26.4227 21.6998 26.3002C21.5773 26.1776 21.5009 26.0163 21.4838 25.8439C21.4667 25.6714 21.5099 25.4983 21.606 25.354C21.4978 25.1636 21.4132 24.9608 21.354 24.75H21C20.8011 24.75 20.6103 24.671 20.4697 24.5303C20.329 24.3897 20.25 24.1989 20.25 24C20.25 23.8011 20.329 23.6103 20.4697 23.4697C20.6103 23.329 20.8011 23.25 21 23.25H21.354C21.414 23.0367 21.498 22.8353 21.606 22.646C21.5099 22.5017 21.4667 22.3286 21.4838 22.1561C21.5009 21.9837 21.5773 21.8224 21.6998 21.6998C21.8224 21.5773 21.9837 21.5009 22.1561 21.4838C22.3286 21.4667 22.5017 21.5099 22.646 21.606C22.8347 21.4987 23.036 21.4147 23.25 21.354V21C23.25 20.8011 23.329 20.6103 23.4697 20.4697C23.6103 20.329 23.8011 20.25 24 20.25ZM23.116 24.884C23.2318 25.0006 23.3695 25.0931 23.5212 25.1563C23.673 25.2194 23.8357 25.2519 24 25.2519C24.1643 25.2519 24.327 25.2194 24.4788 25.1563C24.6305 25.0931 24.7682 25.0006 24.884 24.884C25.0588 24.7092 25.1778 24.4864 25.226 24.244C25.2742 24.0015 25.2494 23.7502 25.1548 23.5218C25.0602 23.2934 24.9 23.0982 24.6944 22.9609C24.4889 22.8235 24.2472 22.7502 24 22.7502C23.7528 22.7502 23.5111 22.8235 23.3056 22.9609C23.1 23.0982 22.9398 23.2934 22.8452 23.5218C22.7506 23.7502 22.7258 24.0015 22.774 24.244C22.8222 24.4864 22.9412 24.7092 23.116 24.884Z" fill="#7146E8"/>
<path d="M18.25 24C18.25 22.475 18.8558 21.0125 19.9341 19.9341C21.0125 18.8558 22.475 18.25 24 18.25C25.525 18.25 26.9875 18.8558 28.0659 19.9341C29.1442 21.0125 29.75 22.475 29.75 24C29.75 25.525 29.1442 26.9875 28.0659 28.0659C26.9875 29.1442 25.525 29.75 24 29.75C22.475 29.75 21.0125 29.1442 19.9341 28.0659C18.8558 26.9875 18.25 25.525 18.25 24ZM24 19.75C23.4419 19.75 22.8892 19.8599 22.3736 20.0735C21.858 20.2871 21.3894 20.6001 20.9948 20.9948C20.6001 21.3894 20.2871 21.858 20.0735 22.3736C19.8599 22.8892 19.75 23.4419 19.75 24C19.75 24.5581 19.8599 25.1108 20.0735 25.6264C20.2871 26.142 20.6001 26.6106 20.9948 27.0052C21.3894 27.3999 21.858 27.7129 22.3736 27.9265C22.8892 28.1401 23.4419 28.25 24 28.25C25.1272 28.25 26.2082 27.8022 27.0052 27.0052C27.8022 26.2082 28.25 25.1272 28.25 24C28.25 22.8728 27.8022 21.7918 27.0052 20.9948C26.2082 20.1978 25.1272 19.75 24 19.75Z" fill="#7146E8"/>
<path d="M26.633 14.25H21.367C20.275 14.25 19.409 14.25 18.712 14.307C17.998 14.365 17.395 14.487 16.844 14.767C15.95 15.2227 15.2232 15.9498 14.768 16.844C14.493 17.384 14.37 17.974 14.311 18.667C14.0665 18.7934 13.8616 18.9846 13.7185 19.2197C13.5755 19.4549 13.4999 19.7248 13.5 20V21.5C13.4998 21.7635 13.5691 22.0223 13.7007 22.2505C13.8324 22.4788 14.0218 22.6683 14.25 22.8V25.2C14.0218 25.3317 13.8324 25.5212 13.7007 25.7495C13.5691 25.9777 13.4998 26.2365 13.5 26.5V28C13.5 28.58 13.83 29.083 14.31 29.333C14.37 30.027 14.493 30.617 14.768 31.157C15.2236 32.0505 15.9503 32.7768 16.844 33.232C17.394 33.513 17.998 33.635 18.712 33.693C19.409 33.75 20.275 33.75 21.367 33.75H26.633C27.725 33.75 28.591 33.75 29.288 33.693C30.002 33.635 30.605 33.513 31.157 33.233C32.0505 32.7774 32.7768 32.0507 33.232 31.157C33.513 30.605 33.635 30.002 33.693 29.288C33.75 28.591 33.75 27.725 33.75 26.633V21.367C33.75 20.275 33.75 19.409 33.693 18.712C33.635 17.998 33.513 17.395 33.233 16.844C32.7776 15.9501 32.0509 15.2234 31.157 14.768C30.605 14.487 30.002 14.365 29.288 14.307C28.591 14.25 27.725 14.25 26.633 14.25ZM15.81 29.262C16.225 28.996 16.5 28.53 16.5 28V26.5C16.5002 26.2365 16.4309 25.9777 16.2993 25.7495C16.1676 25.5212 15.9782 25.3317 15.75 25.2V22.8C15.9782 22.6683 16.1676 22.4788 16.2993 22.2505C16.4309 22.0223 16.5002 21.7635 16.5 21.5V20C16.5 19.47 16.225 19.004 15.81 18.738C15.863 18.173 15.957 17.813 16.104 17.525C16.4156 16.9136 16.9126 16.4166 17.524 16.105C17.829 15.949 18.214 15.853 18.834 15.802C19.464 15.751 20.268 15.75 21.4 15.75H26.6C27.733 15.75 28.537 15.75 29.166 15.802C29.786 15.852 30.171 15.949 30.476 16.104C31.0874 16.4156 31.5844 16.9126 31.896 17.524C32.051 17.829 32.147 18.214 32.198 18.834C32.249 19.464 32.25 20.268 32.25 21.4V26.6C32.25 27.733 32.25 28.537 32.198 29.166C32.148 29.786 32.051 30.171 31.896 30.476C31.5844 31.0874 31.0874 31.5844 30.476 31.896C30.171 32.051 29.786 32.147 29.166 32.198C28.536 32.249 27.732 32.25 26.6 32.25H21.4C20.268 32.25 19.463 32.25 18.834 32.198C18.214 32.148 17.829 32.051 17.524 31.896C16.9126 31.5844 16.4156 31.0874 16.104 30.476C15.957 30.187 15.863 29.827 15.81 29.262Z" fill="#7146E8"/>
</svg>
