<svg width="40" height="40" viewBox="0 0 40 40" fill="none" xmlns="http://www.w3.org/2000/svg">
<rect width="40" height="40" rx="6.66667" fill="#FFF7EE"/>
<path d="M13.334 21.6667C13.334 20.2083 13.6812 18.9097 14.3757 17.7708C15.0701 16.6319 15.834 15.6736 16.6673 14.8958C17.5007 14.1181 18.2645 13.5242 18.959 13.1142L20.0007 12.5V15.25C20.0007 15.7639 20.1743 16.17 20.5215 16.4683C20.8687 16.7667 21.2576 16.9161 21.6882 16.9167C21.9243 16.9167 22.1501 16.8681 22.3657 16.7708C22.5812 16.6736 22.779 16.5139 22.959 16.2917L23.334 15.8333C24.334 16.4167 25.1395 17.2256 25.7507 18.26C26.3618 19.2944 26.6673 20.43 26.6673 21.6667C26.6673 22.8889 26.3687 24.0036 25.7715 25.0108C25.1743 26.0181 24.3895 26.8128 23.4173 27.395C23.6534 27.0617 23.8376 26.6972 23.9698 26.3017C24.102 25.9061 24.1679 25.4861 24.1673 25.0417C24.1673 24.4861 24.0632 23.9617 23.8548 23.4683C23.6465 22.975 23.3479 22.5342 22.959 22.1458L20.0007 19.25L17.0632 22.1458C16.6604 22.5486 16.3548 22.9931 16.1465 23.4792C15.9382 23.9653 15.834 24.4861 15.834 25.0417C15.834 25.4861 15.9001 25.9064 16.0323 26.3025C16.1645 26.6986 16.3484 27.0631 16.584 27.3958C15.6118 26.8125 14.827 26.0172 14.2298 25.01C13.6326 24.0028 13.334 22.8883 13.334 21.6667ZM20.0007 21.5833L21.7715 23.3125C22.0076 23.5486 22.1882 23.8125 22.3132 24.1042C22.4382 24.3958 22.5007 24.7083 22.5007 25.0417C22.5007 25.7222 22.2576 26.3022 21.7715 26.7817C21.2854 27.2611 20.6951 27.5006 20.0007 27.5C19.3062 27.4994 18.7159 27.26 18.2298 26.7817C17.7437 26.3033 17.5007 25.7233 17.5007 25.0417C17.5007 24.7222 17.5632 24.4133 17.6882 24.115C17.8132 23.8167 17.9937 23.5492 18.2298 23.3125L20.0007 21.5833Z" fill="#E89E50"/>
</svg>
