<svg width="48" height="48" viewBox="0 0 48 48" fill="none" xmlns="http://www.w3.org/2000/svg">
<rect width="48" height="48" rx="8" fill="#EAFAF3"/>
<path d="M15.5345 25.2049H15.4395V25.2999C15.4434 27.5432 16.3377 29.6932 17.9259 31.2776C19.514 32.862 21.6661 33.7512 23.9095 33.7499H23.9995V33.6599C23.9988 32.5489 23.7793 31.4489 23.3536 30.4227C22.9278 29.3966 22.3041 28.4643 21.518 27.6792C20.732 26.8941 19.799 26.2715 18.7723 25.8469C17.7457 25.4224 16.6454 25.2042 15.5345 25.2049ZM32.4995 25.1999C30.2575 25.2025 28.1082 26.095 26.5238 27.6813C24.9394 29.2675 24.0495 31.4179 24.0495 33.6599V33.7499H24.1395C26.3823 33.7472 28.5323 32.854 30.1169 31.2667C31.7014 29.6793 32.5908 27.5277 32.5895 25.2849V25.1999H32.4995ZM26.3195 24.9999C26.3245 24.9183 26.3245 24.8365 26.3195 24.7549C26.4706 24.8854 26.6388 24.9947 26.8195 25.0799C27.0963 25.2235 27.3993 25.3099 27.7102 25.3341C28.0212 25.3582 28.3339 25.3195 28.6296 25.2203C28.9253 25.1211 29.198 24.9634 29.4315 24.7566C29.665 24.5498 29.8545 24.2981 29.9887 24.0166C30.123 23.735 30.1992 23.4294 30.2128 23.1178C30.2265 22.8062 30.1773 22.495 30.0682 22.2028C29.9591 21.9106 29.7923 21.6433 29.5778 21.4169C29.3632 21.1905 29.1054 21.0095 28.8195 20.8849L28.5995 20.7849L28.8195 20.6849C28.9215 20.6257 29.02 20.5606 29.1145 20.4899C29.6025 20.1192 29.9232 19.5699 30.0062 18.9628C30.0892 18.3556 29.9276 17.7404 29.557 17.2524C29.1863 16.7644 28.637 16.4436 28.0298 16.3606C27.4227 16.2776 26.8075 16.4392 26.3195 16.8099C26.3245 16.7283 26.3245 16.6465 26.3195 16.5649C26.2918 15.9688 26.0355 15.4064 25.6039 14.9944C25.1723 14.5824 24.5986 14.3525 24.002 14.3525C23.4053 14.3525 22.8316 14.5824 22.4 14.9944C21.9684 15.4064 21.7121 15.9688 21.6845 16.5649C21.6794 16.6465 21.6794 16.7283 21.6845 16.8099C21.5319 16.6812 21.364 16.572 21.1845 16.4849C20.6275 16.2196 19.988 16.1865 19.4066 16.3928C18.8253 16.5991 18.3497 17.0279 18.0845 17.5849C17.8192 18.1418 17.7861 18.7813 17.9924 19.3627C18.1987 19.944 18.6275 20.4196 19.1845 20.6849L19.4045 20.7849L19.1845 20.8849C19.0818 20.9412 18.9832 21.0047 18.8895 21.0749C18.4015 21.4455 18.0807 21.9948 17.9977 22.602C17.9147 23.2091 18.0763 23.8244 18.447 24.3124C18.8176 24.8004 19.3669 25.1211 19.9741 25.2041C20.5812 25.2871 21.1965 25.1255 21.6845 24.7549C21.6794 24.8365 21.6794 24.9183 21.6845 24.9999C21.7121 25.5959 21.9684 26.1583 22.4 26.5703C22.8316 26.9823 23.4053 27.2122 24.002 27.2122C24.5986 27.2122 25.1723 26.9823 25.6039 26.5703C26.0355 26.1583 26.2918 25.5959 26.3195 24.9999ZM23.9995 23.0949C23.5406 23.0949 23.0921 22.9588 22.7105 22.7039C22.329 22.4489 22.0316 22.0866 21.8561 21.6627C21.6805 21.2388 21.6345 20.7723 21.724 20.3223C21.8135 19.8722 22.0345 19.4588 22.359 19.1344C22.6834 18.8099 23.0968 18.589 23.5468 18.4994C23.9969 18.4099 24.4634 18.4559 24.8873 18.6315C25.3112 18.8071 25.6735 19.1044 25.9285 19.4859C26.1834 19.8675 26.3195 20.316 26.3195 20.7749C26.3201 21.0797 26.2606 21.3817 26.1442 21.6635C26.0278 21.9452 25.857 22.2013 25.6414 22.4168C25.4258 22.6324 25.1698 22.8032 24.8881 22.9196C24.6063 23.036 24.3043 23.0955 23.9995 23.0949Z" stroke="#1F9061" stroke-width="1.5" stroke-linecap="round" stroke-linejoin="round"/>
</svg>
