<svg width="40" height="40" viewBox="0 0 40 40" fill="none" xmlns="http://www.w3.org/2000/svg">
<rect width="40" height="40" rx="6.66667" fill="#E9F4FD"/>
<path d="M15.625 12.1894C15.625 11.2788 16.7544 10.9332 17.3006 11.5894C18.035 12.4707 18.585 12.9832 19.0719 13.2894C19.3141 13.4449 19.5783 13.5631 19.8556 13.64C19.3176 14.4411 19.0409 15.3891 19.0637 16.3538C19.09 17.56 19.9494 18.3413 20.7231 18.6538L24.2569 20.0819C25.0306 20.3944 26.1906 20.43 27.0487 19.5807C27.5261 19.1082 27.8963 18.5387 28.1344 17.9107C28.5431 18.757 28.7536 19.6852 28.75 20.625C28.75 22.3807 28.0394 23.9219 26.875 25.0938V26.875C26.875 27.3723 26.6775 27.8492 26.3258 28.2009C25.9742 28.5525 25.4973 28.75 25 28.75H23.75C23.4185 28.75 23.1005 28.6184 22.8661 28.3839C22.6317 28.1495 22.5 27.8316 22.5 27.5H20C20 27.8316 19.8683 28.1495 19.6339 28.3839C19.3995 28.6184 19.0815 28.75 18.75 28.75H17.5C17.0027 28.75 16.5258 28.5525 16.1742 28.2009C15.8225 27.8492 15.625 27.3723 15.625 26.875V26.3357C14.4069 25.6363 13.4519 24.6025 12.9319 23.2007C12.8869 23.08 12.8025 23.0207 12.7369 23.0069C12.3165 22.9185 11.9394 22.6881 11.6686 22.3546C11.3979 22.0211 11.2501 21.6046 11.25 21.175V20.075C11.25 19.1894 11.8706 18.425 12.7375 18.2432C12.8031 18.2294 12.8875 18.17 12.9319 18.0494C13.4519 16.6482 14.4069 15.6138 15.625 14.9144V12.1894ZM16.5625 19.375C16.8111 19.375 17.0496 19.2763 17.2254 19.1005C17.4012 18.9246 17.5 18.6862 17.5 18.4375C17.5 18.1889 17.4012 17.9505 17.2254 17.7746C17.0496 17.5988 16.8111 17.5 16.5625 17.5C16.3139 17.5 16.0754 17.5988 15.8996 17.7746C15.7238 17.9505 15.625 18.1889 15.625 18.4375C15.625 18.6862 15.7238 18.9246 15.8996 19.1005C16.0754 19.2763 16.3139 19.375 16.5625 19.375ZM20 16.25C20 15.6326 20.1524 15.0247 20.4438 14.4803C20.7352 13.9359 21.1565 13.4719 21.6703 13.1294C22.1841 12.787 22.7746 12.5768 23.3892 12.5173C24.0038 12.4579 24.6235 12.5512 25.1934 12.7889C25.7633 13.0265 26.2657 13.4012 26.656 13.8797C27.0462 14.3582 27.3123 14.9257 27.4306 15.5317C27.5488 16.1377 27.5156 16.7636 27.3339 17.3537C27.1521 17.9438 26.8275 18.4799 26.3887 18.9144C25.8725 19.4263 25.1437 19.4294 24.6081 19.2125L21.0744 17.785C20.5381 17.5682 20.0169 17.06 20.0006 16.3332L20 16.25Z" fill="#1D85D4"/>
</svg>
