<svg width="48" height="48" viewBox="0 0 48 48" fill="none" xmlns="http://www.w3.org/2000/svg">
<rect width="48" height="48" rx="8" fill="#E9F4FD"/>
<path d="M18.75 14.6281C18.75 13.5353 20.1052 13.1206 20.7607 13.9081C21.642 14.9656 22.302 15.5806 22.8862 15.9481C23.177 16.1344 23.494 16.2759 23.8267 16.3681C23.5436 16.7906 23.3191 17.2495 23.1592 17.7323C22.7826 17.6037 22.4226 17.4307 22.0868 17.2171C21.4935 16.8443 20.9025 16.3201 20.25 15.6053V18.3451C20.25 18.484 20.2114 18.6201 20.1386 18.7384C20.0658 18.8566 19.9615 18.9523 19.8375 19.0148C18.474 19.7026 17.4585 20.7421 16.9245 22.1806C16.7182 22.7371 16.2465 23.2223 15.5932 23.3596C15.4256 23.3947 15.2752 23.4864 15.1672 23.6192C15.0592 23.7521 15.0001 23.9181 15 24.0893V25.4093C15 25.7633 15.2475 26.0686 15.5932 26.1413C16.2465 26.2786 16.7182 26.7638 16.9245 27.3196C17.4585 28.7588 18.474 29.7983 19.8375 30.4861C19.9615 30.5486 20.0658 30.6443 20.1386 30.7625C20.2114 30.8808 20.25 31.017 20.25 31.1558V32.2501C20.25 32.449 20.329 32.6398 20.4697 32.7804C20.6103 32.9211 20.8011 33.0001 21 33.0001H22.5C22.5 32.6023 22.658 32.2207 22.9393 31.9394C23.2206 31.6581 23.6022 31.5001 24 31.5001H27C27.3978 31.5001 27.7794 31.6581 28.0607 31.9394C28.342 32.2207 28.5 32.6023 28.5 33.0001H30C30.1989 33.0001 30.3897 32.9211 30.5303 32.7804C30.671 32.6398 30.75 32.449 30.75 32.2501V29.7938C30.75 29.6908 30.7713 29.5889 30.8125 29.4944C30.8536 29.4 30.9138 29.315 30.9892 29.2448C32.2515 28.0711 33 26.5201 33 24.7501C33 24.1958 32.925 23.6603 32.781 23.1488C33.2004 22.6572 33.532 22.097 33.7612 21.4928C34.2517 22.5084 34.5043 23.6223 34.5 24.7501C34.5 26.8576 33.6472 28.7063 32.25 30.1126V32.2501C32.25 32.8468 32.0129 33.4191 31.591 33.8411C31.169 34.263 30.5967 34.5001 30 34.5001H28.5C28.1022 34.5001 27.7206 34.3421 27.4393 34.0607C27.158 33.7794 27 33.3979 27 33.0001H24C24 33.3979 23.842 33.7794 23.5607 34.0607C23.2794 34.3421 22.8978 34.5001 22.5 34.5001H21C20.4033 34.5001 19.831 34.263 19.409 33.8411C18.9871 33.4191 18.75 32.8468 18.75 32.2501V31.6028C17.2882 30.7636 16.1422 29.5231 15.5182 27.8416C15.4642 27.6968 15.363 27.6256 15.2843 27.6091C14.7797 27.5029 14.327 27.2264 14.0021 26.826C13.6773 26.4256 13.5 25.9257 13.5 25.4101V24.0901C13.5 23.0266 14.2448 22.1101 15.285 21.8911C15.3637 21.8746 15.465 21.8041 15.5182 21.6586C16.1422 19.9771 17.2882 18.7366 18.75 17.8973V14.6281ZM28.5 16.5001C28.1004 16.5001 27.7047 16.5799 27.3364 16.735C26.968 16.89 26.6343 17.117 26.3549 17.4028C26.0755 17.6885 25.8561 18.0272 25.7094 18.399C25.5627 18.7707 25.4918 19.168 25.5007 19.5676C25.503 19.6711 25.5885 19.8451 25.851 19.9508L30.0915 21.6646C30.354 21.7711 30.537 21.7051 30.6112 21.6316C31.0337 21.2132 31.3223 20.6787 31.4404 20.0959C31.5585 19.5132 31.5007 18.9085 31.2745 18.3586C31.0483 17.8088 30.6638 17.3385 30.1698 17.0076C29.6758 16.6767 29.0946 16.5001 28.5 16.5001ZM24 19.5001C24 18.7591 24.1829 18.0296 24.5326 17.3764C24.8822 16.7231 25.3878 16.1663 26.0044 15.7554C26.621 15.3444 27.3295 15.0921 28.067 15.0208C28.8045 14.9495 29.5482 15.0615 30.2321 15.3467C30.916 15.6319 31.5188 16.0815 31.9872 16.6557C32.4555 17.2299 32.7748 17.9108 32.9167 18.6381C33.0586 19.3653 33.0187 20.1164 32.8006 20.8245C32.5826 21.5326 32.193 22.176 31.6665 22.6973C31.047 23.3116 30.1725 23.3153 29.5297 23.0551L25.2892 21.3421C24.6457 21.0818 24.0202 20.4721 24.0007 19.5998L24 19.5001ZM19.875 23.2501C20.1734 23.2501 20.4595 23.1316 20.6705 22.9206C20.8815 22.7096 21 22.4235 21 22.1251C21 21.8267 20.8815 21.5406 20.6705 21.3296C20.4595 21.1186 20.1734 21.0001 19.875 21.0001C19.5766 21.0001 19.2905 21.1186 19.0795 21.3296C18.8685 21.5406 18.75 21.8267 18.75 22.1251C18.75 22.4235 18.8685 22.7096 19.0795 22.9206C19.2905 23.1316 19.5766 23.2501 19.875 23.2501Z" fill="#2092E9" stroke="#2092E9" stroke-width="0.666667"/>
</svg>
