<svg width="32" height="32" viewBox="0 0 32 32" fill="none" xmlns="http://www.w3.org/2000/svg">
<g clip-path="url(#clip0_527_5088)">
<path d="M1.9375 16C1.9375 17.8467 2.30124 19.6753 3.00794 21.3815C3.71465 23.0876 4.75049 24.6379 6.05631 25.9437C7.36214 27.2495 8.91237 28.2853 10.6185 28.9921C12.3247 29.6988 14.1533 30.0625 16 30.0625C17.8467 30.0625 19.6753 29.6988 21.3815 28.9921C23.0876 28.2853 24.6379 27.2495 25.9437 25.9437C27.2495 24.6379 28.2853 23.0876 28.9921 21.3815C29.6988 19.6753 30.0625 17.8467 30.0625 16C30.0625 14.1533 29.6988 12.3247 28.9921 10.6185C28.2853 8.91237 27.2495 7.36214 25.9437 6.05631C24.6379 4.75049 23.0876 3.71465 21.3815 3.00794C19.6753 2.30124 17.8467 1.9375 16 1.9375C14.1533 1.9375 12.3247 2.30124 10.6185 3.00794C8.91237 3.71465 7.36214 4.75049 6.05631 6.05631C4.75049 7.36214 3.71465 8.91237 3.00794 10.6185C2.30124 12.3247 1.9375 14.1533 1.9375 16Z" stroke="#1D85D4" stroke-width="2" stroke-linecap="round" stroke-linejoin="round"/>
<path d="M7.25 12.875H9.75L14.75 19.125H17.25" stroke="#1D85D4" stroke-width="2" stroke-linecap="round" stroke-linejoin="round"/>
<path d="M14.75 12.875H17.25L22.25 19.125H24.75" stroke="#1D85D4" stroke-width="2" stroke-linecap="round" stroke-linejoin="round"/>
<path d="M7.25 19.125H9.75" stroke="#1D85D4" stroke-width="2" stroke-linecap="round" stroke-linejoin="round"/>
<path d="M22.25 12.875H24.75V15.375" stroke="#1D85D4" stroke-width="2" stroke-linecap="round" stroke-linejoin="round"/>
</g>
<defs>
<clipPath id="clip0_527_5088">
<rect width="32" height="32" fill="white"/>
</clipPath>
</defs>
</svg>
