<svg width="120" height="120" viewBox="0 0 120 120" fill="none" xmlns="http://www.w3.org/2000/svg">
<path fill-rule="evenodd" clip-rule="evenodd" d="M60 13.75C56.7113 13.75 53.4757 14.8082 45.4031 17.5715L42.539 18.5519C34.976 21.1407 29.4605 23.0302 25.588 24.6034C23.655 25.3887 22.2545 26.0467 21.2714 26.6177C20.7861 26.8995 20.4517 27.1321 20.2284 27.3136C20.039 27.4676 19.9668 27.5547 19.9565 27.5674C19.9468 27.5831 19.8846 27.687 19.7971 27.9327C19.6972 28.2132 19.5865 28.6154 19.4786 29.1753C19.2602 30.3085 19.0947 31.8651 18.9804 33.9646C18.7514 38.1706 18.75 44.0417 18.75 52.0833V59.9568C18.75 85.8323 38.0995 98.5673 50.9939 104.2C52.8513 105.011 53.9239 105.471 55.118 105.776C56.2584 106.068 57.65 106.25 60 106.25C62.35 106.25 63.7416 106.068 64.882 105.776C66.0761 105.471 67.1487 105.011 69.0061 104.2C81.9005 98.5673 101.25 85.8323 101.25 59.9568V52.0833C101.25 44.0417 101.249 38.1706 101.02 33.9646C100.905 31.8651 100.74 30.3085 100.521 29.1753C100.414 28.6154 100.303 28.2132 100.203 27.9327C100.115 27.6868 100.053 27.583 100.044 27.5674C100.033 27.5546 99.9609 27.4674 99.7716 27.3136C99.5483 27.1321 99.2139 26.8995 98.7286 26.6177C97.7455 26.0467 96.345 25.3887 94.412 24.6034C90.5395 23.0302 85.024 21.1407 77.461 18.5519L74.5969 17.5715C66.5243 14.8082 63.2887 13.75 60 13.75ZM43.6169 10.2556C50.8366 7.78291 55.3124 6.25 60 6.25C64.6876 6.25 69.1634 7.78292 76.3831 10.2556C76.5949 10.3281 76.8092 10.4015 77.0258 10.4757L80.0202 11.5007C87.4269 14.036 93.143 15.9926 97.2348 17.6549C99.2961 18.4923 101.068 19.3033 102.495 20.132C103.868 20.9295 105.246 21.9242 106.182 23.2577C107.107 24.5758 107.585 26.1962 107.886 27.7561C108.198 29.3778 108.387 31.3232 108.508 33.5568C108.75 37.992 108.75 44.068 108.75 51.9491V59.9568C108.75 90.462 85.7099 105.088 72.0083 111.073L71.8728 111.132C70.1738 111.874 68.5769 112.572 66.742 113.042C64.8047 113.538 62.7463 113.75 60 113.75C57.2537 113.75 55.1953 113.538 53.258 113.042C51.4231 112.572 49.8261 111.874 48.1272 111.132L47.9917 111.073C34.2901 105.088 11.25 90.462 11.25 59.9568V51.9495C11.25 44.0682 11.25 37.9921 11.4915 33.5568C11.6131 31.3232 11.8016 29.3778 12.1141 27.7561C12.4147 26.1962 12.893 24.5758 13.8182 23.2577C14.7541 21.9242 16.1317 20.9295 17.5049 20.132C18.9318 19.3033 20.7039 18.4923 22.7652 17.6549C26.857 15.9926 32.5731 14.036 39.9798 11.5007L42.9742 10.4757C43.1908 10.4015 43.4051 10.3281 43.6169 10.2556ZM60 39.5024C59.4053 40.3849 58.6726 41.6858 57.5818 43.6426L56.9264 44.8183C56.8777 44.9056 56.8275 44.9969 56.7756 45.0913C56.2327 46.0778 55.4952 47.4179 54.2773 48.3425C53.037 49.284 51.5412 49.6133 50.4718 49.8487C50.3703 49.871 50.2726 49.8925 50.1793 49.9136L48.9066 50.2016C46.5808 50.7279 45.1313 51.0647 44.1573 51.4052C44.7595 52.31 45.7704 53.5051 47.4102 55.4226L48.2778 56.4372C48.3417 56.5119 48.4082 56.5889 48.4768 56.6684C49.2156 57.5235 50.1983 58.6612 50.6526 60.1219C51.1021 61.5674 50.9499 63.0629 50.8336 64.2061C50.8228 64.3129 50.8122 64.4165 50.8025 64.5168L50.6713 65.8705C50.437 68.2887 50.2926 69.853 50.2967 70.9596C51.2578 70.619 52.5741 70.021 54.583 69.0961L55.7746 68.5474C55.8623 68.507 55.9541 68.4641 56.0498 68.4193C57.039 67.9564 58.4423 67.2997 60 67.2997C61.5577 67.2997 62.961 67.9564 63.9502 68.4193C64.0459 68.4641 64.1377 68.507 64.2254 68.5474L65.417 69.0961C67.4259 70.021 68.7422 70.619 69.7033 70.9596C69.7074 69.853 69.563 68.2887 69.3287 65.8705L69.1975 64.5168C69.1878 64.4165 69.1772 64.3129 69.1664 64.2061C69.0501 63.063 68.8979 61.5674 69.3474 60.1219C69.8017 58.6612 70.7844 57.5235 71.5232 56.6684C71.5918 56.5889 71.6584 56.5119 71.7222 56.4372L72.5898 55.4226C74.2296 53.5051 75.2405 52.31 75.8427 51.4052C74.8687 51.0647 73.4192 50.7279 71.0934 50.2016L69.8207 49.9136C69.7274 49.8925 69.6297 49.871 69.5282 49.8487C68.4588 49.6133 66.963 49.284 65.7227 48.3425C64.5048 47.4179 63.7673 46.0778 63.2245 45.0913C63.1725 44.9969 63.1223 44.9057 63.0736 44.8184L62.4182 43.6426C61.3274 41.6858 60.5947 40.3849 60 39.5024ZM70.7647 71.251C70.7703 71.2511 70.7732 71.2514 70.7733 71.2515L70.7647 71.251ZM49.2266 71.2515C49.2267 71.2514 49.2297 71.2512 49.2353 71.251L49.2266 71.2515ZM54.4157 34.4242C55.4941 33.0161 57.2548 31.25 60 31.25C62.7452 31.25 64.5059 33.0161 65.5843 34.4242C66.6227 35.7802 67.6856 37.6875 68.8415 39.7619C68.8839 39.838 68.9265 39.9143 68.9691 39.9909L69.6245 41.1666C69.8085 41.4967 69.9509 41.7518 70.0773 41.9706C70.1622 42.1176 70.2288 42.2286 70.2824 42.3143C70.3665 42.3376 70.4729 42.3651 70.6093 42.3983C70.8443 42.4556 71.1177 42.5175 71.4758 42.5985L72.7485 42.8865C72.8353 42.9061 72.9218 42.9257 73.0082 42.9452C75.2427 43.4504 77.3283 43.922 78.9033 44.5426C80.6097 45.2151 82.6716 46.4272 83.466 48.9819C84.2478 51.4958 83.2853 53.6661 82.3131 55.2105C81.3997 56.6615 79.9896 58.3099 78.4578 60.1007C78.402 60.1659 78.346 60.2314 78.2898 60.2971L77.4222 61.3117C77.1785 61.5966 76.9907 61.8164 76.8311 62.009C76.7003 62.1669 76.6098 62.281 76.5452 62.367C76.5536 62.6455 76.5893 63.0376 76.6625 63.7934L76.8184 65.4017C77.0509 67.7979 77.2631 69.985 77.1864 71.7075C77.1067 73.4971 76.6845 75.8924 74.5571 77.5073C72.3686 79.1687 69.9234 78.8447 68.189 78.3477C66.5658 77.8827 64.6155 76.9843 62.5243 76.021C62.4432 75.9836 62.3618 75.9462 62.2803 75.9086L61.0887 75.36C60.7535 75.2056 60.497 75.0877 60.2742 74.9894C60.1645 74.941 60.0745 74.9026 60 74.8719C59.9255 74.9026 59.8355 74.941 59.7258 74.9894C59.503 75.0877 59.2465 75.2056 58.9113 75.36L57.7197 75.9086C57.6382 75.9462 57.5568 75.9836 57.4757 76.021C55.3845 76.9843 53.4342 77.8826 51.811 78.3477C50.0767 78.8447 47.6314 79.1687 45.4429 77.5073C43.3155 75.8924 42.8933 73.4971 42.8136 71.7075C42.7369 69.985 42.9491 67.798 43.1816 65.4018C43.1898 65.3172 43.198 65.2323 43.2063 65.1471L43.3375 63.7934C43.4107 63.0376 43.4464 62.6455 43.4549 62.367C43.3902 62.281 43.2997 62.1669 43.1689 62.009C43.0093 61.8164 42.8215 61.5966 42.5778 61.3117L41.7102 60.2971C41.654 60.2314 41.598 60.1659 41.5421 60.1006C40.0104 58.3099 38.6003 56.6615 37.6869 55.2105C36.7147 53.6661 35.7522 51.4958 36.534 48.9819C37.3284 46.4272 39.3903 45.2151 41.0967 44.5426C42.6717 43.922 44.7573 43.4504 46.9918 42.9452C47.0782 42.9257 47.1647 42.9061 47.2515 42.8865L48.5242 42.5986C48.8823 42.5175 49.1557 42.4556 49.3907 42.3983C49.5271 42.3651 49.6335 42.3376 49.7176 42.3143C49.7712 42.2287 49.8378 42.1176 49.9227 41.9706C50.0491 41.7518 50.1915 41.4967 50.3755 41.1666L51.0309 39.9909C51.0735 39.9144 51.116 39.838 51.1584 39.762C52.3144 37.6875 53.3773 35.7802 54.4157 34.4242Z" fill="white"/>
</svg>
