<svg width="120" height="120" viewBox="0 0 120 120" fill="none" xmlns="http://www.w3.org/2000/svg">
<path d="M110 42.5C110 60.45 95.45 75 77.5 75C76.65 75 75.7501 74.9501 74.9001 74.9001C73.6501 59.0501 60.9499 46.3499 45.0999 45.0999C45.0499 44.2499 45 43.35 45 42.5C45 24.55 59.55 10 77.5 10C95.45 10 110 24.55 110 42.5Z" stroke="white" stroke-width="5.5" stroke-linecap="round" stroke-linejoin="round"/>
<path d="M75 77.5C75 95.45 60.45 110 42.5 110C24.55 110 10 95.45 10 77.5C10 59.55 24.55 45 42.5 45C43.35 45 44.2499 45.0499 45.0999 45.0999C60.9499 46.3499 73.6501 59.0501 74.9001 74.9001C74.9501 75.7501 75 76.65 75 77.5Z" stroke="white" stroke-width="5.5" stroke-linecap="round" stroke-linejoin="round"/>
<path d="M27.95 10H15C12.25 10 10 12.25 10 15V27.95C10 32.4 15.4 34.6499 18.55 31.4999L31.4999 18.55C34.5999 15.4 32.4 10 27.95 10Z" stroke="white" stroke-width="5.5" stroke-linecap="round" stroke-linejoin="round"/>
<path d="M92.0486 110H104.999C107.749 110 109.999 107.75 109.999 105V92.0501C109.999 87.6001 104.599 85.3501 101.449 88.5001L88.4986 101.45C85.3986 104.6 87.5986 110 92.0486 110Z" stroke="white" stroke-width="5.5" stroke-linecap="round" stroke-linejoin="round"/>
</svg>
