<svg width="20" height="20" viewBox="0 0 20 20" fill="none" xmlns="http://www.w3.org/2000/svg">
<path d="M11.666 2.29163C13.255 2.29163 14.3839 2.29295 15.2403 2.40809C16.0787 2.52081 16.5618 2.7322 16.9144 3.08488C17.3204 3.49083 17.4971 3.80551 17.595 4.36649C17.7053 4.99879 17.7077 5.90072 17.7077 7.49996C17.7077 7.84514 17.9875 8.12496 18.3327 8.12496C18.6779 8.12496 18.9577 7.84514 18.9577 7.49996L18.9577 7.4197C18.9577 5.92038 18.9578 4.90471 18.8263 4.15162C18.6802 3.31384 18.3687 2.77136 17.7983 2.201C17.1747 1.57736 16.3839 1.3006 15.4069 1.16924C14.4575 1.0416 13.2445 1.04161 11.713 1.04163H11.666C11.3208 1.04163 11.041 1.32145 11.041 1.66663C11.041 2.0118 11.3208 2.29163 11.666 2.29163Z" fill="#494A4E"/>
<path d="M1.66602 11.875C2.0112 11.875 2.29102 12.1548 2.29102 12.5C2.29102 14.0992 2.29342 15.0011 2.40376 15.6334C2.50164 16.1944 2.67833 16.5091 3.08427 16.915C3.43695 17.2677 3.91999 17.4791 4.75839 17.5918C5.61478 17.707 6.74367 17.7083 8.33269 17.7083C8.67787 17.7083 8.95769 17.9881 8.95769 18.3333C8.95769 18.6785 8.67787 18.9583 8.33269 18.9583H8.28568C6.75421 18.9583 5.54118 18.9583 4.59183 18.8307C3.61482 18.6993 2.82403 18.4226 2.20039 17.7989C1.63003 17.2286 1.31855 16.6861 1.17236 15.8483C1.04095 15.0952 1.04098 14.0796 1.04102 12.5803L1.04102 12.5C1.04102 12.1548 1.32084 11.875 1.66602 11.875Z" fill="#494A4E"/>
<path d="M18.3327 11.875C18.6779 11.875 18.9577 12.1548 18.9577 12.5L18.9577 12.5802C18.9577 14.0795 18.9578 15.0952 18.8263 15.8483C18.6802 16.6861 18.3687 17.2286 17.7983 17.7989C17.1747 18.4226 16.3839 18.6993 15.4069 18.8307C14.4575 18.9583 13.2445 18.9583 11.713 18.9583H11.666C11.3208 18.9583 11.041 18.6785 11.041 18.3333C11.041 17.9881 11.3208 17.7083 11.666 17.7083C13.255 17.7083 14.3839 17.707 15.2403 17.5918C16.0787 17.4791 16.5618 17.2677 16.9144 16.915C17.3204 16.5091 17.4971 16.1944 17.595 15.6334C17.7053 15.0011 17.7077 14.0992 17.7077 12.5C17.7077 12.1548 17.9875 11.875 18.3327 11.875Z" fill="#494A4E"/>
<path d="M8.28567 1.04163H8.33269C8.67787 1.04163 8.95769 1.32145 8.95769 1.66663C8.95769 2.0118 8.67787 2.29163 8.33269 2.29163C6.74367 2.29163 5.61478 2.29295 4.75839 2.40809C3.91999 2.52081 3.43695 2.7322 3.08427 3.08488C2.67833 3.49083 2.50164 3.80551 2.40376 4.36649C2.29342 4.99879 2.29102 5.90072 2.29102 7.49996C2.29102 7.84514 2.0112 8.12496 1.66602 8.12496C1.32084 8.12496 1.04102 7.84514 1.04102 7.49996L1.04102 7.4197C1.04098 5.9204 1.04095 4.90471 1.17236 4.15162C1.31855 3.31384 1.63003 2.77136 2.20039 2.201C2.82403 1.57736 3.61482 1.3006 4.59183 1.16924C5.54118 1.0416 6.75421 1.04161 8.28567 1.04163Z" fill="#494A4E"/>
<path d="M1.66602 9.37496C1.32084 9.37496 1.04102 9.65478 1.04102 9.99996C1.04102 10.3451 1.32084 10.625 1.66602 10.625H18.3327C18.6779 10.625 18.9577 10.3451 18.9577 9.99996C18.9577 9.65478 18.6779 9.37496 18.3327 9.37496H1.66602Z" fill="#494A4E"/>
</svg>
