<svg width="44" height="44" viewBox="0 0 44 44" fill="none" xmlns="http://www.w3.org/2000/svg">
<rect width="44" height="44" rx="8" fill="#EEF0F2"/>
<path d="M22.92 12.2598L29.43 15.7698C30.19 16.1798 30.19 17.3498 29.43 17.7598L22.92 21.2698C22.34 21.5798 21.66 21.5798 21.08 21.2698L14.57 17.7598C13.81 17.3498 13.81 16.1798 14.57 15.7698L21.08 12.2598C21.66 11.9498 22.34 11.9498 22.92 12.2598Z" stroke="#494A4E" stroke-width="1.5" stroke-linecap="round" stroke-linejoin="round"/>
<path d="M13.61 20.1302L19.66 23.1602C20.41 23.5402 20.89 24.3102 20.89 25.1502V30.8702C20.89 31.7002 20.02 32.2302 19.28 31.8602L13.23 28.8302C12.48 28.4502 12 27.6802 12 26.8402V21.1202C12 20.2902 12.87 19.7602 13.61 20.1302Z" stroke="#494A4E" stroke-width="1.5" stroke-linecap="round" stroke-linejoin="round"/>
<path d="M30.3894 20.1302L24.3394 23.1602C23.5894 23.5402 23.1094 24.3102 23.1094 25.1502V30.8702C23.1094 31.7002 23.9794 32.2302 24.7194 31.8602L30.7694 28.8302C31.5194 28.4502 31.9994 27.6802 31.9994 26.8402V21.1202C31.9994 20.2902 31.1294 19.7602 30.3894 20.1302Z" stroke="#494A4E" stroke-width="1.5" stroke-linecap="round" stroke-linejoin="round"/>
</svg>
