<svg width="44" height="44" viewBox="0 0 44 44" fill="none" xmlns="http://www.w3.org/2000/svg">
<rect width="44" height="44" rx="8" fill="#EEF0F2"/>
<path d="M20.4901 12.2301L15.5002 14.1001C14.3502 14.5301 13.4102 15.8901 13.4102 17.1201V24.5501C13.4102 25.7301 14.1902 27.2801 15.1402 27.9901L19.4402 31.2001C20.8502 32.2601 23.1701 32.2601 24.5801 31.2001L28.8802 27.9901C29.8302 27.2801 30.6101 25.7301 30.6101 24.5501V17.1201C30.6101 15.8901 29.6701 14.5301 28.5201 14.1001L23.5302 12.2301C22.6802 11.9201 21.3201 11.9201 20.4901 12.2301Z" stroke="#494A4E" stroke-width="1.5" stroke-linecap="round" stroke-linejoin="round"/>
<path d="M22 25.5C24.2091 25.5 26 23.7091 26 21.5C26 19.2909 24.2091 17.5 22 17.5C19.7909 17.5 18 19.2909 18 21.5C18 23.7091 19.7909 25.5 22 25.5Z" stroke="#494A4E" stroke-width="1.5" stroke-miterlimit="10" stroke-linecap="round" stroke-linejoin="round"/>
<path d="M22.25 20.25V21.18C22.25 21.53 22.07 21.86 21.76 22.04L21 22.5" stroke="#494A4E" stroke-width="1.5" stroke-miterlimit="10" stroke-linecap="round" stroke-linejoin="round"/>
</svg>
