<svg width="44" height="44" viewBox="0 0 44 44" fill="none" xmlns="http://www.w3.org/2000/svg">
<rect width="44" height="44" rx="8" fill="#EEF0F2"/>
<path fill-rule="evenodd" clip-rule="evenodd" d="M22.001 11.25C17.7208 11.25 14.251 14.7198 14.251 19V19.7041C14.251 20.401 14.0447 21.0824 13.6581 21.6622L12.5095 23.3851C11.1764 25.3848 12.1942 28.1028 14.5127 28.7351C15.2684 28.9412 16.0303 29.1155 16.7968 29.2581L16.7987 29.2632C17.5676 31.3151 19.623 32.75 22.001 32.75C24.3789 32.75 26.4343 31.3151 27.2033 29.2632L27.2051 29.2581C27.9716 29.1155 28.7336 28.9412 29.4893 28.7351C31.8079 28.1028 32.8256 25.3848 31.4925 23.3851L30.3439 21.6622C29.9573 21.0824 29.751 20.401 29.751 19.7041V19C29.751 14.7198 26.2812 11.25 22.001 11.25ZM25.3774 29.537C23.1345 29.805 20.8674 29.8049 18.6245 29.5369C19.3354 30.5585 20.572 31.25 22.001 31.25C23.4299 31.25 24.6665 30.5585 25.3774 29.537ZM15.751 19C15.751 15.5482 18.5492 12.75 22.001 12.75C25.4528 12.75 28.251 15.5482 28.251 19V19.7041C28.251 20.6972 28.545 21.668 29.0958 22.4943L30.2444 24.2172C31.0096 25.3649 30.4254 26.925 29.0946 27.288C24.4504 28.5546 19.5517 28.5546 14.9074 27.288C13.5766 26.925 12.9924 25.3649 13.7576 24.2172L14.9062 22.4943C15.4571 21.668 15.751 20.6972 15.751 19.7041V19Z" fill="#494A4E"/>
</svg>
