<svg width="127" height="30" viewBox="0 0 127 30" fill="none" xmlns="http://www.w3.org/2000/svg">
<path d="M3.75 13.0208C3.75 9.02384 3.75 7.02535 4.22189 6.35301C4.69379 5.68067 6.57291 5.03745 10.3311 3.75099L11.0472 3.5059C13.0062 2.8353 13.9858 2.5 15 2.5C16.0142 2.5 16.9938 2.8353 18.9528 3.5059L19.6689 3.75099C23.4271 5.03745 25.3062 5.68067 25.7781 6.35301C26.25 7.02535 26.25 9.02384 26.25 13.0208C26.25 13.6246 26.25 14.2793 26.25 14.9892C26.25 18.1204 25.204 20.5355 23.75 22.3802M3.99105 17.5C5.06282 22.873 9.47052 25.6411 12.3732 26.9091C13.275 27.303 13.7259 27.5 15 27.5C16.2741 27.5 16.725 27.303 17.6268 26.9091C18.3495 26.5934 19.1654 26.1847 20 25.666" stroke="#FCFDFD" stroke-width="4" stroke-linecap="round"/>
<path d="M46.415 23.835C47.185 23.835 47.815 23.7767 48.305 23.66C48.8183 23.52 49.2267 23.345 49.53 23.135C49.8333 22.9017 50.0433 22.6333 50.16 22.33C50.2767 22.0267 50.335 21.6883 50.335 21.315C50.335 20.5217 49.9617 19.8683 49.215 19.355C48.4683 18.8183 47.185 18.2467 45.365 17.64C44.5717 17.36 43.7783 17.045 42.985 16.695C42.1917 16.3217 41.48 15.8667 40.85 15.33C40.22 14.77 39.7067 14.105 39.31 13.335C38.9133 12.5417 38.715 11.585 38.715 10.465C38.715 9.345 38.925 8.34167 39.345 7.455C39.765 6.545 40.36 5.775 41.13 5.145C41.9 4.515 42.8333 4.03667 43.93 3.71C45.0267 3.36 46.2633 3.185 47.64 3.185C49.2733 3.185 50.685 3.36 51.875 3.71C53.065 4.06 54.045 4.445 54.815 4.865L53.24 9.17C52.5633 8.82 51.805 8.51667 50.965 8.26C50.1483 7.98 49.1567 7.84 47.99 7.84C46.6833 7.84 45.7383 8.02667 45.155 8.4C44.595 8.75 44.315 9.29833 44.315 10.045C44.315 10.4883 44.42 10.8617 44.63 11.165C44.84 11.4683 45.1317 11.7483 45.505 12.005C45.9017 12.2383 46.345 12.46 46.835 12.67C47.3483 12.8567 47.9083 13.055 48.515 13.265C49.775 13.7317 50.8717 14.1983 51.805 14.665C52.7383 15.1083 53.5083 15.6333 54.115 16.24C54.745 16.8467 55.2117 17.5583 55.515 18.375C55.8183 19.1917 55.97 20.1833 55.97 21.35C55.97 23.6133 55.1767 25.375 53.59 26.635C52.0033 27.8717 49.6117 28.49 46.415 28.49C45.3417 28.49 44.3733 28.42 43.51 28.28C42.6467 28.1633 41.8767 28.0117 41.2 27.825C40.5467 27.6383 39.975 27.44 39.485 27.23C39.0183 27.02 38.6217 26.8217 38.295 26.635L39.835 22.295C40.5583 22.6917 41.445 23.0533 42.495 23.38C43.5683 23.6833 44.875 23.835 46.415 23.835ZM67.2663 24.36C67.7796 24.36 68.2696 24.3483 68.7363 24.325C69.2029 24.3017 69.5763 24.2667 69.8563 24.22V20.265C69.6463 20.2183 69.3313 20.1717 68.9113 20.125C68.4913 20.0783 68.1063 20.055 67.7563 20.055C67.2663 20.055 66.7996 20.09 66.3563 20.16C65.9363 20.2067 65.5629 20.3117 65.2363 20.475C64.9096 20.6383 64.6529 20.86 64.4663 21.14C64.2796 21.42 64.1863 21.77 64.1863 22.19C64.1863 23.0067 64.4546 23.5783 64.9913 23.905C65.5513 24.2083 66.3096 24.36 67.2663 24.36ZM66.8463 9.1C68.3863 9.1 69.6696 9.275 70.6963 9.625C71.7229 9.975 72.5396 10.4767 73.1463 11.13C73.7763 11.7833 74.2196 12.5767 74.4763 13.51C74.7329 14.4433 74.8613 15.4817 74.8613 16.625V27.475C74.1146 27.6383 73.0763 27.825 71.7463 28.035C70.4163 28.2683 68.8063 28.385 66.9163 28.385C65.7263 28.385 64.6413 28.28 63.6613 28.07C62.7046 27.86 61.8763 27.5217 61.1763 27.055C60.4763 26.565 59.9396 25.935 59.5663 25.165C59.1929 24.395 59.0063 23.45 59.0063 22.33C59.0063 21.2567 59.2163 20.3467 59.6363 19.6C60.0796 18.8533 60.6629 18.2583 61.3863 17.815C62.1096 17.3717 62.9379 17.0567 63.8713 16.87C64.8046 16.66 65.7729 16.555 66.7762 16.555C67.4529 16.555 68.0479 16.59 68.5613 16.66C69.0979 16.7067 69.5296 16.7767 69.8563 16.87V16.38C69.8563 15.4933 69.5879 14.7817 69.0513 14.245C68.5146 13.7083 67.5813 13.44 66.2513 13.44C65.3646 13.44 64.4896 13.51 63.6263 13.65C62.7629 13.7667 62.0163 13.9417 61.3863 14.175L60.7213 9.975C61.0246 9.88166 61.3979 9.78833 61.8413 9.695C62.3079 9.57833 62.8096 9.485 63.3463 9.415C63.8829 9.32167 64.4429 9.25167 65.0263 9.205C65.6329 9.135 66.2396 9.1 66.8463 9.1ZM84.1376 28C82.9476 25.6667 81.7343 22.9367 80.4976 19.81C79.2843 16.6833 78.1293 13.2767 77.0326 9.59H82.5626C82.796 10.5 83.0643 11.4917 83.3676 12.565C83.6943 13.615 84.021 14.6883 84.3476 15.785C84.6976 16.8583 85.036 17.9083 85.3626 18.935C85.7126 19.9617 86.051 20.895 86.3776 21.735C86.681 20.895 87.0076 19.9617 87.3576 18.935C87.7076 17.9083 88.046 16.8583 88.3726 15.785C88.7226 14.6883 89.0493 13.615 89.3526 12.565C89.6793 11.4917 89.9593 10.5 90.1926 9.59H95.5826C94.486 13.2767 93.3193 16.6833 92.0826 19.81C90.8693 22.9367 89.6676 25.6667 88.4776 28H84.1376ZM98.7258 28V3.745H114.966V8.33H104.186V13.405H113.776V17.99H104.186V28H98.7258ZM123.688 28H118.473V9.59H123.688V28ZM124.178 4.27C124.178 5.22667 123.863 5.985 123.233 6.545C122.627 7.08167 121.903 7.35 121.063 7.35C120.223 7.35 119.488 7.08167 118.858 6.545C118.252 5.985 117.948 5.22667 117.948 4.27C117.948 3.31333 118.252 2.56667 118.858 2.03C119.488 1.47 120.223 1.19 121.063 1.19C121.903 1.19 122.627 1.47 123.233 2.03C123.863 2.56667 124.178 3.31333 124.178 4.27Z" fill="#FCFDFD"/>
</svg>
